<svg width="2067" height="1023" viewBox="0 0 2067 1023" fill="none" xmlns="http://www.w3.org/2000/svg">
<g opacity="0.3">
<rect y="613" width="133.87" height="133.87" fill="#FFA0FB"/>
<path d="M202.147 160.744C246.535 205.133 318.503 205.133 362.891 160.744L202.147 0C157.758 44.3883 157.758 116.356 202.147 160.744Z" fill="#6271FF"/>
<circle r="68.198" transform="matrix(-1 0 0 1 404.198 407.198)" fill="#FFD600"/>
<rect x="363" y="703" width="417" height="100" transform="rotate(30 363 703)" fill="#92DEFF"/>
<rect width="133.87" height="133.87" transform="matrix(-1 0 0 1 1694.87 889)" fill="#FFA0FB"/>
<path d="M1527.74 499.744C1483.36 544.133 1411.39 544.133 1367 499.744L1527.74 339C1572.13 383.388 1572.13 455.356 1527.74 499.744Z" fill="#6271FF"/>
<circle cx="1784.2" cy="68.198" r="68.198" fill="#FFD600"/>
<rect width="417" height="100" transform="matrix(-0.866025 0.5 0.5 0.866025 2213.13 288)" fill="#92DEFF"/>
</g>
</svg>
