<svg width="42" height="42" viewBox="0 0 42 42" fill="none" xmlns="http://www.w3.org/2000/svg">
<path fill-rule="evenodd" clip-rule="evenodd" d="M4 21C4 11.6112 11.6112 4 21 4C30.3888 4 38 11.6112 38 21C38 30.3888 30.3888 38 21 38C11.6112 38 4 30.3888 4 21ZM21 0C9.40202 0 0 9.40202 0 21C0 32.598 9.40202 42 21 42C32.598 42 42 32.598 42 21C42 9.40202 32.598 0 21 0ZM23 12C23 10.8954 22.1046 10 21 10C19.8954 10 19 10.8954 19 12V19H12C10.8954 19 10 19.8954 10 21C10 22.1046 10.8954 23 12 23H19V30C19 31.1046 19.8954 32 21 32C22.1046 32 23 31.1046 23 30V23H30C31.1046 23 32 22.1046 32 21C32 19.8954 31.1046 19 30 19H23V12Z" fill="white"/>
</svg>
