<svg width="72" height="56" viewBox="0 0 72 56" fill="none" xmlns="http://www.w3.org/2000/svg">
<path fill-rule="evenodd" clip-rule="evenodd" d="M0 2C0 0.89543 0.89543 0 2 0H13.8632C15.2662 0 16.4818 0.972383 16.7899 2.34112L18.1764 8.5H68.6841C70.6031 8.5 72.0287 10.2768 71.6128 12.1502L66.7289 34.1502C66.4241 35.5231 65.2065 36.5 63.8002 36.5H24.7242L25.4687 39H59.1795C60.2841 39 61.1795 39.8954 61.1795 41C61.1795 42.1046 60.2841 43 59.1795 43H24.7231C23.396 43 22.2266 42.1281 21.8479 40.8562L20.1251 35.0708L20.1064 35.008L20.0918 34.9441L14.6265 10.9441L14.6254 10.9392L13.0633 4H2C0.89543 4 0 3.10457 0 2ZM23.6376 32.5L19.0833 12.5H67.4377L62.9978 32.5H23.6376ZM29.7217 48C28.6172 48 27.7217 48.8954 27.7217 50C27.7217 51.1046 28.6172 52 29.7217 52C30.8263 52 31.7217 51.1046 31.7217 50C31.7217 48.8954 30.8263 48 29.7217 48ZM23.7217 50C23.7217 46.6863 26.408 44 29.7217 44C33.0354 44 35.7217 46.6863 35.7217 50C35.7217 53.3137 33.0354 56 29.7217 56C26.408 56 23.7217 53.3137 23.7217 50ZM54.6782 50C54.6782 48.8954 55.5737 48 56.6782 48C57.7828 48 58.6782 48.8954 58.6782 50C58.6782 51.1046 57.7828 52 56.6782 52C55.5737 52 54.6782 51.1046 54.6782 50ZM56.6782 44C53.3645 44 50.6782 46.6863 50.6782 50C50.6782 53.3137 53.3645 56 56.6782 56C59.992 56 62.6782 53.3137 62.6782 50C62.6782 46.6863 59.992 44 56.6782 44Z" fill="white"/>
</svg>
