<svg width="42" height="42" viewBox="0 0 42 42" fill="none" xmlns="http://www.w3.org/2000/svg">
<path fill-rule="evenodd" clip-rule="evenodd" d="M4 21C4 11.6112 11.6112 4 21 4C30.3888 4 38 11.6112 38 21C38 30.3888 30.3888 38 21 38C11.6112 38 4 30.3888 4 21ZM21 0C9.40202 0 0 9.40202 0 21C0 32.598 9.40202 42 21 42C32.598 42 42 32.598 42 21C42 9.40202 32.598 0 21 0ZM31.131 14.1575C31.7703 13.2567 31.5583 12.0083 30.6575 11.369C29.7567 10.7297 28.5083 10.9417 27.869 11.8425L18.2922 25.337L13.4656 20.1391C12.714 19.3297 11.4485 19.2828 10.6391 20.0344C9.82968 20.786 9.78281 22.0515 10.5344 22.8609L17.0344 29.8609C17.444 30.302 18.0305 30.5352 18.6311 30.4957C19.2317 30.4562 19.7826 30.1484 20.131 29.6575L31.131 14.1575Z" fill="white"/>
</svg>
