<svg width="50" height="50" viewBox="0 0 50 50" fill="none" xmlns="http://www.w3.org/2000/svg">
<g clip-path="url(#clip0)">
<path d="M49.0331 7.77817L41.962 0.707107C41.5715 0.316583 40.9383 0.316582 40.5478 0.707107L35.598 5.65685C35.2075 6.04738 35.2075 6.68054 35.598 7.07107L42.6691 14.1421C43.0596 14.5327 43.6928 14.5327 44.0833 14.1421L49.0331 9.19239C49.4236 8.80186 49.4236 8.1687 49.0331 7.77817Z" fill="#C4C4C4"/>
<path d="M2.14006 48.865L12.7467 45.3295C12.8939 45.2804 13.0278 45.1977 13.1375 45.0879L41.2549 16.9706C41.6454 16.58 41.6454 15.9469 41.2549 15.5563L34.1838 8.48528C33.7933 8.09476 33.1601 8.09476 32.7696 8.48528L4.65226 36.6026C4.54248 36.7124 4.45977 36.8462 4.41068 36.9935L0.875144 47.6001C0.614561 48.3819 1.3583 49.1256 2.14006 48.865Z" fill="#C4C4C4"/>
</g>
<defs>
<clipPath id="clip0">
<rect width="50" height="50" fill="white"/>
</clipPath>
</defs>
</svg>
