<svg width="132" height="132" viewBox="0 0 132 132" fill="none" xmlns="http://www.w3.org/2000/svg">
<circle cx="66" cy="66" r="66" fill="#DCDCDC"/>
<path fill-rule="evenodd" clip-rule="evenodd" d="M67 30C67 28.8954 67.8954 28 69 28C70.1046 28 71 28.8954 71 30V42C71 43.1046 70.1046 44 69 44C67.8954 44 67 43.1046 67 42V30ZM47.9142 37.5858C47.1332 36.8047 45.8668 36.8047 45.0858 37.5858C44.3047 38.3668 44.3047 39.6332 45.0858 40.4142L53.0858 48.4142C53.8668 49.1953 55.1332 49.1953 55.9142 48.4142C56.6953 47.6332 56.6953 46.3668 55.9142 45.5858L47.9142 37.5858ZM27 47C25.8954 47 25 47.8954 25 49C25 50.1046 25.8954 51 27 51H38.0633L39.6254 57.9392L39.6265 57.9441L45.0918 81.9441L45.1064 82.008L45.1251 82.0708L46.8479 87.8562C47.2266 89.1281 48.396 90 49.7231 90H84.1795C85.2841 90 86.1795 89.1046 86.1795 88C86.1795 86.8954 85.2841 86 84.1795 86H50.4687L49.7242 83.5H88.8002C90.2065 83.5 91.4241 82.5231 91.7289 81.1502L96.6128 59.1502C97.0287 57.2768 95.6031 55.5 93.6841 55.5H43.1764L41.7899 49.3411C41.4818 47.9724 40.2662 47 38.8632 47H27ZM44.0833 59.5L48.6376 79.5H87.9978L92.4377 59.5H44.0833ZM52.7217 97C52.7217 95.8954 53.6172 95 54.7217 95C55.8263 95 56.7217 95.8954 56.7217 97C56.7217 98.1046 55.8263 99 54.7217 99C53.6172 99 52.7217 98.1046 52.7217 97ZM54.7217 91C51.408 91 48.7217 93.6863 48.7217 97C48.7217 100.314 51.408 103 54.7217 103C58.0354 103 60.7217 100.314 60.7217 97C60.7217 93.6863 58.0354 91 54.7217 91ZM81.6782 95C80.5737 95 79.6782 95.8954 79.6782 97C79.6782 98.1046 80.5737 99 81.6782 99C82.7828 99 83.6782 98.1046 83.6782 97C83.6782 95.8954 82.7828 95 81.6782 95ZM75.6782 97C75.6782 93.6863 78.3645 91 81.6782 91C84.992 91 87.6782 93.6863 87.6782 97C87.6782 100.314 84.992 103 81.6782 103C78.3645 103 75.6782 100.314 75.6782 97ZM92.4142 38.0858C91.6332 37.3047 90.3668 37.3047 89.5858 38.0858L82.0858 45.5858C81.3047 46.3668 81.3047 47.6332 82.0858 48.4142C82.8668 49.1953 84.1332 49.1953 84.9142 48.4142L92.4142 40.9142C93.1953 40.1332 93.1953 38.8668 92.4142 38.0858Z" fill="white"/>
</svg>
