<svg width="41" height="45" viewBox="0 0 41 45" fill="none" xmlns="http://www.w3.org/2000/svg">
<path fill-rule="evenodd" clip-rule="evenodd" d="M21 4C24.171 4 26.8496 6.10851 27.7101 9H14.2899C15.1504 6.10851 17.829 4 21 4ZM10.1814 9C11.1219 3.87976 15.6079 0 21 0C26.3921 0 30.8781 3.87976 31.8186 9H38.5C39.6046 9 40.5 9.89543 40.5 11C40.5 12.1046 39.6046 13 38.5 13H32H30H12H10H2.5C1.39543 13 0.5 12.1046 0.5 11C0.5 9.89543 1.39543 9 2.5 9H10.1814ZM7.4519 19L11.9647 41H14V19H7.4519ZM18 19V41H24V19H18ZM28 19V41H30.0353L34.5481 19H28ZM3.28714 18.6028C2.90551 16.7424 4.32678 15 6.22595 15H16H26H35.774C37.6732 15 39.0945 16.7424 38.7129 18.6028L33.7898 42.6028C33.5035 43.9983 32.2755 45 30.851 45H26H16H11.149C9.72453 45 8.49646 43.9983 8.21022 42.6028L3.28714 18.6028Z" fill="white"/>
</svg>
